<?xml version="1.0" encoding="UTF-8"?>
<svg id="Layer_2" data-name="Layer 2" xmlns="http://www.w3.org/2000/svg" viewBox="0 0 32 32">
  <defs>
    <style>
      .cls-1, .cls-2 {
        fill: #cf0;
      }

      .cls-3 {
        fill: #000049;
      }

      .cls-2 {
        font-family: VastinePersonalUse, 'Vastine Personal Use';
        font-size: 2.5px;
      }
    </style>
  </defs>
  <g id="Layer_1-2" data-name="Layer 1">
    <g>
      <rect class="cls-3" width="32" height="32"/>
      <g>
        <path class="cls-1" d="M28.73,12.85l-1.28-.02c-.11,0-.2.09-.21.2l-.05,3.24h.37v.16h-12.99l.37-.87h10.98c.24,0,.44-.2.44-.44v-4.18c0-.24-.2-.44-.44-.44h-10.08c-.36,0-.68.21-.82.54l-.46,1.08h0s-.03.06-.03.06l-.1.25s0,0,0,0l-.16.37-.13-.05.2-.47c-.15-.42-.29-.74-.41-.93-.06-.1-.19-.13-.29-.06l-1.06.73c-.09.06-.11.17-.06.27.16.29.48.94.45,1.6h-.85l-1.18-2.77c-.14-.33-.46-.54-.82-.54h-2.4c-.36,0-.68.21-.82.54l-3.84,9.06c-.04.1,0,.22.11.27l1.18.5c.1.04.22,0,.27-.11l3.57-8.41h-.29v-.16h.35s1.34,0,1.34,0l1.35,3.19c.03.07.11.12.19.12h1.58s.74,0,.74,0v.16h-.43s-.6,1.42-.6,1.42c-.03.06-.02.13.02.19l.45.69c.04.06.1.09.17.09h15.34c.24,0,.44-.19.44-.43l.06-4.63c0-.11-.09-.2-.2-.21ZM15.29,13.73h.44s.65-1.53.65-1.53h8.67v.22h-.37v1.46h-9.39v-.16Z"/>
        <circle class="cls-1" cx="8.46" cy="16.83" r="1.15"/>
        <circle class="cls-1" cx="8.46" cy="19.8" r="1.15"/>
        <circle class="cls-1" cx="27.78" cy="19.8" r="1.15"/>
        <text class="cls-2" transform="translate(10.73 20.95)"><tspan x="0" y="0">BASIR</tspan></text>
      </g>
    </g>
  </g>
</svg>