<?xml version="1.0" encoding="UTF-8"?>
<svg id="Layer_2" data-name="Layer 2" xmlns="http://www.w3.org/2000/svg" viewBox="0 0 247.85 105.21">
  <defs>
    <style>
      .cls-1 {
        font-family: VastinePersonalUse, 'Vastine Personal Use';
        font-size: 23.95px;
      }

      .cls-1, .cls-2 {
        fill: #000049;
      }
    </style>
  </defs>
  <g id="Layer_1-2">
    <g>
      <path class="cls-2" d="M245.93,22.44l-12.3-.17c-1.07-.01-1.95.84-1.97,1.91l-.43,31.07h3.56v1.57h-124.51l3.53-8.31h105.29c2.33,0,4.23-1.89,4.23-4.23V4.23c0-2.34-1.89-4.23-4.23-4.23h-96.64c-3.42,0-6.52,2.05-7.86,5.2l-4.4,10.37h0s-.26.6-.26.6l-1,2.37s0-.01,0-.02l-1.53,3.56-1.21-.53,1.94-4.51c-1.45-4.03-2.82-7.07-3.91-8.91-.57-.97-1.84-1.24-2.76-.61l-10.18,6.96c-.83.57-1.09,1.67-.6,2.55,1.56,2.78,4.56,8.98,4.35,15.31h-8.1l-11.29-26.6c-1.33-3.15-4.43-5.2-7.85-5.2h-22.97c-3.42,0-6.52,2.05-7.85,5.2L.15,92.56c-.42.99.04,2.13,1.03,2.55l11.32,4.8c.99.42,2.13-.04,2.55-1.03L49.25,18.26l-2.74-.02v-1.52h3.39s12.83,0,12.83,0l12.99,30.62c.3.72,1.01,1.18,1.79,1.18h15.16s7.08,0,7.08,0v1.52l-4.15-.02-5.79,13.63c-.25.6-.19,1.28.16,1.82l4.36,6.65c.36.55.97.88,1.62.88h147.06c2.31,0,4.19-1.86,4.23-4.17l.61-44.43c.01-1.07-.84-1.95-1.91-1.97ZM117.13,30.82h4.19s6.21-14.64,6.21-14.64h83.16v2.14h-3.54v14.02h-90.02v-1.52Z"/>
      <circle class="cls-2" cx="51.63" cy="60.57" r="11.02"/>
      <circle class="cls-2" cx="51.63" cy="89.05" r="11.02"/>
      <circle class="cls-2" cx="236.83" cy="89.05" r="11.02"/>
      <text class="cls-1" transform="translate(73.36 100.07)"><tspan x="0" y="0">BASIR</tspan></text>
    </g>
  </g>
</svg>